<svg width="32" height="32" viewBox="0 0 32 32" fill="none" xmlns="http://www.w3.org/2000/svg">
<path d="M30.1957 15.3362C28.87 9.34308 26.875 6.14433 23.9157 5.27058C23.2936 5.08808 22.6483 4.99692 22 4.99995C21.1432 4.99995 20.3969 5.2087 19.6075 5.42995C18.6563 5.69683 17.5757 5.99995 16 5.99995C14.4244 5.99995 13.3432 5.69745 12.39 5.43058C11.6 5.2087 10.8544 4.99995 10 4.99995C9.32969 4.99759 8.66225 5.08846 8.01692 5.26995C5.07317 6.13995 3.07942 9.33745 1.73442 15.3325C0.288172 21.7837 1.00005 25.8568 3.73067 26.8018C4.10497 26.9338 4.4988 27.0018 4.89567 27.0031C6.7663 27.0031 8.2663 25.4449 9.2913 24.1693C10.4494 22.7256 11.805 21.9931 16 21.9931C19.7469 21.9931 21.2975 22.5012 22.6369 24.1693C23.4788 25.2181 24.2744 25.9518 25.0682 26.4137C26.1238 27.0274 27.1788 27.1637 28.2032 26.8118C29.8169 26.2612 30.7419 24.8056 30.9532 22.4843C31.1138 20.7043 30.8663 18.3662 30.1957 15.3362ZM13 15H11V17C11 17.2652 10.8947 17.5195 10.7072 17.7071C10.5196 17.8946 10.2653 18 10 18C9.73483 18 9.48048 17.8946 9.29294 17.7071C9.1054 17.5195 9.00005 17.2652 9.00005 17V15H7.00005C6.73483 15 6.48048 14.8946 6.29294 14.7071C6.1054 14.5195 6.00005 14.2652 6.00005 14C6.00005 13.7347 6.1054 13.4804 6.29294 13.2928C6.48048 13.1053 6.73483 13 7.00005 13H9.00005V11C9.00005 10.7347 9.1054 10.4804 9.29294 10.2928C9.48048 10.1053 9.73483 9.99995 10 9.99995C10.2653 9.99995 10.5196 10.1053 10.7072 10.2928C10.8947 10.4804 11 10.7347 11 11V13H13C13.2653 13 13.5196 13.1053 13.7072 13.2928C13.8947 13.4804 14 13.7347 14 14C14 14.2652 13.8947 14.5195 13.7072 14.7071C13.5196 14.8946 13.2653 15 13 15ZM18.25 15.25C18.0028 15.25 17.7611 15.1766 17.5556 15.0393C17.35 14.9019 17.1898 14.7067 17.0952 14.4783C17.0006 14.2499 16.9758 13.9986 17.0241 13.7561C17.0723 13.5136 17.1913 13.2909 17.3662 13.1161C17.541 12.9413 17.7637 12.8222 18.0062 12.774C18.2487 12.7257 18.5 12.7505 18.7284 12.8451C18.9568 12.9397 19.152 13.0999 19.2894 13.3055C19.4267 13.511 19.5 13.7527 19.5 14C19.5 14.3315 19.3684 14.6494 19.1339 14.8838C18.8995 15.1183 18.5816 15.25 18.25 15.25ZM21 18C20.7527 17.9999 20.5109 17.9266 20.3053 17.7891C20.0996 17.6516 19.9394 17.4562 19.8449 17.2276C19.7504 16.999 19.7258 16.7475 19.7743 16.5049C19.8228 16.2624 19.9421 16.0397 20.1173 15.865C20.2924 15.6903 20.5154 15.5715 20.7581 15.5236C21.0008 15.4757 21.2522 15.5009 21.4806 15.596C21.7089 15.6911 21.9039 15.8518 22.0409 16.0578C22.1779 16.2637 22.2507 16.5057 22.25 16.7531C22.2492 17.0841 22.1172 17.4012 21.8828 17.6349C21.6485 17.8687 21.331 18 21 18ZM21 12.5C20.7528 12.5 20.5111 12.4266 20.3056 12.2893C20.1 12.1519 19.9398 11.9567 19.8452 11.7283C19.7506 11.4999 19.7258 11.2486 19.7741 11.0061C19.8223 10.7636 19.9413 10.5409 20.1162 10.3661C20.291 10.1913 20.5137 10.0722 20.7562 10.024C20.9987 9.97574 21.25 10.0005 21.4784 10.0951C21.7068 10.1897 21.902 10.3499 22.0394 10.5555C22.1767 10.761 22.25 11.0027 22.25 11.25C22.25 11.5815 22.1184 11.8994 21.8839 12.1338C21.6495 12.3683 21.3316 12.5 21 12.5ZM23.75 15.25C23.5028 15.25 23.2611 15.1766 23.0556 15.0393C22.85 14.9019 22.6898 14.7067 22.5952 14.4783C22.5006 14.2499 22.4758 13.9986 22.5241 13.7561C22.5723 13.5136 22.6913 13.2909 22.8662 13.1161C23.041 12.9413 23.2637 12.8222 23.5062 12.774C23.7487 12.7257 24 12.7505 24.2284 12.8451C24.4568 12.9397 24.652 13.0999 24.7894 13.3055C24.9267 13.511 25 13.7527 25 14C25 14.3315 24.8684 14.6494 24.6339 14.8838C24.3995 15.1183 24.0816 15.25 23.75 15.25Z" fill="black"/>
</svg>
