<svg width="100" height="100" viewBox="0 0 100 100" fill="none" xmlns="http://www.w3.org/2000/svg">
<rect x="5.5" y="5.5" width="89" height="89" rx="9.5" stroke="black"/>
<path d="M28.016 18.364C30.6613 18.492 33.3493 18.5987 36.08 18.684C38.8107 18.812 41.584 18.876 44.4 18.876H55.408C58.224 18.876 60.976 18.812 63.664 18.684C66.3947 18.5987 69.168 18.492 71.984 18.364C71.8987 18.9187 71.8133 19.452 71.728 19.964C71.6853 20.476 71.664 20.988 71.664 21.5C71.664 22.012 71.6853 22.524 71.728 23.036C71.8133 23.548 71.8987 24.0813 71.984 24.636C69.168 24.508 66.3947 24.38 63.664 24.252C60.976 24.1667 58.224 24.124 55.408 24.124H51.888C51.5467 24.124 51.376 24.252 51.376 24.508C51.376 24.6787 51.568 24.9773 51.952 25.404C53.232 26.8973 54.6827 28.4547 56.304 30.076C57.9253 31.74 59.6107 33.404 61.36 35.068C63.1093 36.732 64.88 38.3747 66.672 39.996C68.5067 41.6173 70.2773 43.1747 71.984 44.668C71.8987 45.1373 71.8133 45.5853 71.728 46.012C71.6853 46.4387 71.664 46.8653 71.664 47.292C71.664 47.804 71.6853 48.316 71.728 48.828C71.8133 49.34 71.8987 49.852 71.984 50.364C70.704 48.8707 69.1893 47.1853 67.44 45.308C65.6907 43.4307 63.8987 41.532 62.064 39.612C60.2293 37.7347 58.416 35.9213 56.624 34.172C54.8747 32.4653 53.3387 31.036 52.016 29.884C48.1333 33.34 44.1653 36.8173 40.112 40.316C36.1013 43.8573 32.0693 47.4413 28.016 51.068C28.1013 50.428 28.144 49.788 28.144 49.148C28.144 48.508 28.144 47.868 28.144 47.228C28.144 46.6307 28.144 46.0333 28.144 45.436C28.144 44.8813 28.1013 44.3053 28.016 43.708C29.7653 42.172 31.7707 40.4653 34.032 38.588C36.2933 36.7533 38.4693 34.94 40.56 33.148C42.6933 31.3987 44.592 29.7987 46.256 28.348C47.9627 26.94 49.1573 25.8947 49.84 25.212C50.1813 24.8707 50.352 24.6147 50.352 24.444C50.352 24.2307 50.224 24.124 49.968 24.124H44.4C41.584 24.124 38.8107 24.1667 36.08 24.252C33.3493 24.38 30.6613 24.508 28.016 24.636C28.1013 23.6547 28.144 22.6093 28.144 21.5C28.144 20.3907 28.1013 19.3453 28.016 18.364Z" fill="#FECB00"/>
<path d="M55.472 51.876C58.288 51.876 61.0613 51.812 63.792 51.684C66.5227 51.5987 69.2533 51.492 71.984 51.364C71.8987 53.284 71.8133 55.1827 71.728 57.06C71.6853 58.98 71.664 60.9 71.664 62.82C71.664 64.74 71.6853 66.6387 71.728 68.516C71.8133 70.3933 71.8987 72.292 71.984 74.212C71.344 74.084 70.704 74.02 70.064 74.02C69.424 74.02 68.784 74.084 68.144 74.212C68.2293 72.8467 68.3147 71.588 68.4 70.436C68.4853 69.3267 68.5707 68.132 68.656 66.852C68.7413 65.6147 68.8053 64.2493 68.848 62.756C68.9333 61.2627 68.976 59.4707 68.976 57.38C67.6107 57.3373 66.3093 57.2733 65.072 57.188C63.8347 57.1453 62.4267 57.124 60.848 57.124C59.184 57.124 57.5627 57.124 55.984 57.124C54.4053 57.1667 53.2107 57.188 52.4 57.188C52.4 59.0653 52.4213 60.7507 52.464 62.244C52.5067 63.7373 52.5493 65.1027 52.592 66.34C52.6773 67.5773 52.7413 68.708 52.784 69.732C52.8693 70.7987 52.9547 71.8013 53.04 72.74C52.4 72.612 51.7387 72.548 51.056 72.548C50.416 72.548 49.776 72.612 49.136 72.74C49.264 71.6307 49.3707 70.3293 49.456 68.836C49.5413 67.3853 49.584 65.9133 49.584 64.42C49.6267 62.9693 49.648 61.5827 49.648 60.26C49.6907 58.98 49.712 57.956 49.712 57.188C49.328 57.188 48.9013 57.1667 48.432 57.124C48.0053 57.124 47.4507 57.124 46.768 57.124H40.432C38 57.124 35.9947 57.124 34.416 57.124C32.8373 57.1667 31.6427 57.2093 30.832 57.252C30.832 58.66 30.832 60.1533 30.832 61.732C30.832 63.3533 30.8533 64.932 30.896 66.468C30.9813 68.0467 31.0667 69.5187 31.152 70.884C31.28 72.292 31.4507 73.508 31.664 74.532C31.3653 74.4467 31.024 74.3827 30.64 74.34C30.2987 74.34 29.9787 74.34 29.68 74.34C28.9973 74.34 28.4427 74.404 28.016 74.532C28.1013 72.612 28.144 70.692 28.144 68.772C28.144 66.8947 28.144 64.9747 28.144 63.012C28.144 61.0493 28.144 59.108 28.144 57.188C28.144 55.268 28.1013 53.3267 28.016 51.364C30.7467 51.492 33.456 51.5987 36.144 51.684C38.8747 51.812 41.648 51.876 44.464 51.876H55.472Z" fill="#0090FE"/>
<path d="M55.408 75.876C58.224 75.876 60.976 75.812 63.664 75.684C66.3947 75.5987 69.168 75.492 71.984 75.364C71.8987 75.9187 71.8133 76.452 71.728 76.964C71.6853 77.476 71.664 77.988 71.664 78.5C71.664 79.012 71.6853 79.524 71.728 80.036C71.8133 80.548 71.8987 81.0813 71.984 81.636C69.168 81.508 66.3947 81.38 63.664 81.252C60.976 81.1667 58.224 81.124 55.408 81.124H44.4C41.584 81.124 38.8107 81.1667 36.08 81.252C33.3493 81.38 30.6613 81.508 28.016 81.636C28.1013 80.6547 28.144 79.6093 28.144 78.5C28.144 77.3907 28.1013 76.3453 28.016 75.364C30.6613 75.492 33.3493 75.5987 36.08 75.684C38.8107 75.812 41.584 75.876 44.4 75.876H55.408Z" fill="#FD2D55"/>
</svg>
