<svg width="32" height="32" viewBox="0 0 32 32" fill="none" xmlns="http://www.w3.org/2000/svg">
<path d="M18.6666 24C18.6666 25.8666 18.6666 26.8 19.0306 27.5133C19.3501 28.1401 19.8598 28.6498 20.4866 28.9693C21.2 29.3333 22.1333 29.3333 24 29.3333C25.8666 29.3333 26.8 29.3333 27.5133 28.9693C28.1401 28.6498 28.6498 28.1401 28.9693 27.5133C29.3333 26.8 29.3333 25.8666 29.3333 24C29.3333 22.1333 29.3333 21.2 28.9693 20.4866C28.6498 19.8598 28.1401 19.3501 27.5133 19.0306C26.8 18.6666 25.8666 18.6666 24 18.6666M18.6666 24C18.6666 22.1333 18.6666 21.2 19.0306 20.4866C19.3501 19.8598 19.8598 19.3501 20.4866 19.0306C21.2 18.6666 22.1333 18.6666 24 18.6666M18.6666 24C18.6666 25.8666 18.6666 26.8 18.3026 27.5133C17.9831 28.1401 17.4735 28.6498 16.8466 28.9693C16.1333 29.3333 15.2 29.3333 13.3333 29.3333C11.4666 29.3333 10.5333 29.3333 9.81996 28.9693C9.19263 28.65 8.68249 28.1403 8.36263 27.5133C7.99996 26.8 7.99996 25.8666 7.99996 24C7.99996 22.1333 7.99996 21.2 8.36263 20.4866C8.68249 19.8596 9.19263 19.3499 9.81996 19.0306C10.5333 18.6666 11.4666 18.6666 13.3333 18.6666C15.2 18.6666 16.1333 18.6666 16.8466 19.0306C17.4735 19.3501 17.9831 19.8598 18.3026 20.4866C18.6666 21.2 18.6666 22.1333 18.6666 24ZM24 18.6666C25.8666 18.6666 26.8 18.6666 27.5133 18.3026C28.1401 17.9831 28.6498 17.4735 28.9693 16.8466C29.3333 16.1333 29.3333 15.2 29.3333 13.3333C29.3333 11.4666 29.3333 10.5333 28.9693 9.81996C28.65 9.19263 28.1403 8.68249 27.5133 8.36263C26.8 7.99996 25.8666 7.99996 24 7.99996C22.1333 7.99996 21.2 7.99996 20.4866 8.36263C19.8596 8.68249 19.3499 9.19263 19.0306 9.81996C18.6666 10.5333 18.6666 11.4666 18.6666 13.3333C18.6666 15.2 18.6666 16.1333 19.0306 16.8466C19.3501 17.4735 19.8598 17.9831 20.4866 18.3026C21.2 18.6666 22.1333 18.6666 24 18.6666ZM13.3333 7.99996C13.3333 9.86663 13.3333 10.8 12.9706 11.5133C12.651 12.1408 12.1408 12.651 11.5133 12.9706C10.8 13.3333 9.86663 13.3333 7.99996 13.3333C6.13329 13.3333 5.19996 13.3333 4.48663 12.9706C3.8591 12.651 3.34893 12.1408 3.02929 11.5133C2.66663 10.8 2.66663 9.86663 2.66663 7.99996C2.66663 6.13329 2.66663 5.19996 3.02929 4.48663C3.34893 3.8591 3.8591 3.34893 4.48663 3.02929C5.19996 2.66663 6.13329 2.66663 7.99996 2.66663C9.86663 2.66663 10.8 2.66663 11.5133 3.02929C12.1408 3.34893 12.651 3.8591 12.9706 4.48663C13.3333 5.19996 13.3333 6.13329 13.3333 7.99996Z" stroke="black" stroke-width="1.5"/>
</svg>
