<?xml version="1.0" encoding="UTF-8"?>
<svg id="a" data-name="Layer 3" xmlns="http://www.w3.org/2000/svg" viewBox="0 0 1920 911.4">
  <path d="M998,889c-8,4.4-12.1,16.4-24.7,19.3s-11.9,2.5-18,2.7l-19.4.4c-13.9.3-26-.7-38.6-5.9-5.5-2.3-10.9-2.4-15.6-7.1s-8.2-8.8-12-14.1-7.7-2.7-10.6-1.5c-8.6,3.4-17,4.8-26.1,5.3s-14.3-5.1-16.6-13.3-3.8-3.4-3.1-6.9.5-9-1.8-11.5c-3.4-3.7-7.2-7.3-11.5-10-9.8-6.3-20.4,7.3-31.8-3.6-8.4-8-13-2.5-23.8-18.7-2.3-3.4-6.1-5.9-9-8.8-6.9-7.1-16.8-1.9-28-3.8s-6.1-3.1-9.3-4.3c-4.6-1.7-9.3-3.2-12.5-7.1-8.5-10.4-13.3-9.1-18.3-21.8-6.4-16.1-23.8-5.5-36.7-21.1-11.3-13.7-26.3-10.6-34.1-22.7-10.7-16.6-8-27.3-11-46.5s-11.7-23.4-17.9-46.4-11.7-16.1-16-30,0-16.4,5.2-22.4c5-5.8,13.5-5.9,19-1.2l6.6,5.6c1.1,1,2.3,1.6,3.7,1.3,6-1.1,6.1-18.1,6.4-22.1,1.3-17.5,2.4-53.5,0-69.9-.4-2.8-1.3-6-4-7.7s-8.7-7.2-13.4-7.2-16,9.5-18.3,9.2-3.5-1-4.9-2.7c-6.6-8.3-3.9-20.7,0-29.8,2.2-5.1,10.8-6.2,10.7-9.7s-.4-4.4-2.5-4.5c-3.7-.2-6.6,1-10.3,1.3-9.3.8-20.1-3.4-23.7-12.8-2.7-7.2-2.7-15.9-1.6-23.4.8-5.4,4.2-9.8,6.1-14.7,3.3-8.4,8.9-14.4,16.1-19.4s9.3-6.7,14.7-9.1c9.6-4.3,16.9-18.8,17.8-27.9s1.9-13.5,3.4-20.4l4.4-20.3c1.5-6.9,5.8-12.8,8.7-19.3,5-10.9,16-6.3,21.8-8.5,8.5-3.2,15.1-9.4,19.5-17.3s7.8-11.6,12.9-16.6,8.6-8.7,13.7-12.4c10.6-7.7,22.5-11.8,35.1-15.2s12.9-6.3,14.1-13,1.1-13.8,0-20.6c-1-2.9-5.7-5.1-8.2-6.3s-4.3.7-5.7,2l-15.2,13.5c-2,1.8-4.8,2.5-6.8,1.8s-3.9-3.1-4.1-5.9c-.8-8.4,0-20.9,6.1-27.2,11.3-11.6,11.7-17.7,29.1-24.9s12.6-5.9,19.6-6.8,13.3,3.9,13.6,11.6-2.5,16.2-6.6,23.8c4.7,3.6,18-8.3,21.3-11.6,7.9-8,16.5-14.4,24.9-22s11.2-12.9,16.7-19.2c.7-3.5-2.7-6.8-4.8-8.1-7.5-4.6-13,4-18-.5s10-21,26.1-22.8c16.1-1.7,15.8,14.8,19.7,18.9s8.3,2.5,12,3.7,9.2.2,12.9-2.9c12.2-10,26.4-16.7,42-19,4.7-.7,8.4-2.8,12.4-5,12.6-7.2,23.4-.3,34.3-11.1s11-11.8,17.1-17.3c9-8,20.6-11.1,32.4-12.2s14.8,3,17.9,10.5,2.7,4.2,5.9,4c9.5-.7,18.2,1.1,27.5,2.3s10-2.9,12.4-6.3,4-8.9,3.4-12.8c-3.4-5.8-10.7-9.8-17.2-9.8s-5,.4-6.2-2.4-.2-4.6,2.3-5.9c7.6-4,16.5-5.5,25.3-4.8s8.5,2.5,11.8,5.4l13.7,12.3c5.6,5,7.2,11.6,5.3,18.6s-2.6,5.2-3.8,7.9l-.5,1.1c-.1.2,0,1,.8,1,7,.2,13.5,1.7,20.3,2.5,16.6,2,16.3,7.6,33.6,11.8s13.2,4.9,19.6,8.4,7.4,4.2,9,8.3c2.6,6.7,5.1,24.3-3.2,24s-10.4-2.4-14.2-5.7-1.4-5.2-4.2-6.8c-2.7.4-8,5.6-6.3,9s13.4,17.9,17.1,18.4l9.3,1.1c8.3,1,3-8.6,8.3-10.6s4.8-.2,6.3,1.8c5,6.7,6.2,14.8,6.9,22.9.4,4.8,5.1,8,8.5,10.6,4.5,3.5,9.4,3.7,14.2.8s3.4-2.8,3.6-5.2c.4-5-8.3-7.3-11.5-15.6s-1.1-4.9,0-6.8,3.9-3.2,6.8-2.9c13.1,1.2,18.2,13.8,21,16.4s4.6,5,7.3,7c10.8,8.1,23.8,16.1,22.2,31.4s-.3,3.6.1,5.7c19.3,2.5,40.3,9.4,54.6,22.9,4.5,4.2,9,7.5,14.8,9.9s12.3,7.8,15.7,14.5c7.3,14.5,14.5,12.9,12.8,27.6s-7.4,18.1-13.7,26-8.9,14.6-16.7,19.7-5.5,4.9-7.2,7.9,0,8.1,2.8,9.7,6.5-4.6,11.6-2.6,2.8,2.2,3.4,4.2c1,3.3,4.4,5,5.9,7.8,2.6,4.7,5.4,8.2,10.1,10.8s9.1,10.1,7.6,17.1-2.4,11.5-7.2,14.4l-10.4,6.2c-1.2,17.1-5.9,14.8-.2,32.2s-2.2,16.3,2.9,28.9c4.2-2,8.4-1.4,11.5,2.2,6.7,8.1,11.7,18.2,13.4,28.7.6,3.7.9,6.1,3.7,8.9,4.9,4.8,10.1,9.5,15.5,13.8s3.7,5.2,3.5,8.9c-.9,13.5,5.5,20.5,4.3,36-.7,8.9,2.3,26.9-11.6,25.8-5.6-.4-5,5.6-11.1,10.6s-9.5,5.8-14.8,8.2c.4,9.1-1.4,17.3-6,24.9s-.6,6.4-1.4,9.5l-6.1,23.3c-1.9,7.2-3.3,14.4-7.3,20.5-10.2,15.5-19.1,9.6-24.1,15.6-4.1,5-12.1,14.6-19.3,10.1s-3.5-1.8-5.3-.6c-13.4,9-26.1,19.2-35.7,32.4s-1.1,8.4-.3,11.1c1.7,6.1,9.3,5,11.2,14s-1.2,9.4-5.8,11.9c-9.9,5.5-12.5-5.2-16.6-5.1s-6.4,5.3-5.1,9.3c3,9,2.9,18.2-1.2,26.7-3.9,8.2-11.8,5.4-16.2,8.4s-8.6,2.8-13.1.7c-.7,9.1-.7,24.6-13.8,24.2s-13.3,4-20.7-3.7-3.2-1.6-4.2-.4c-5.2,6.5-12.5,7.1-20.1,8.5s-15.2,5.4-22.7,8c-16,5.5-4.8,23.1-25.6,27.1-7.4,1.4-13.8,1.2-20.6-2.5-5.7-3.1-12.8-2.9-19-4-8.7-1.6-15.9.7-23.7,4.2l-15.8,7.2c-12.5,5.7-7.2,18.2-21.9,26.4Z"/>
</svg>