<svg width="32" height="32" viewBox="0 0 32 32" fill="none" xmlns="http://www.w3.org/2000/svg">
<path d="M10.6667 25.3333C10.6667 23.9188 11.2286 22.5623 12.2288 21.5621C13.229 20.5619 14.5856 20 16 20C17.4145 20 18.7711 20.5619 19.7713 21.5621C20.7715 22.5623 21.3334 23.9188 21.3334 25.3333C21.3334 26.7478 20.7715 28.1043 19.7713 29.1045C18.7711 30.1047 17.4145 30.6666 16 30.6666C14.5856 30.6666 13.229 30.1047 12.2288 29.1045C11.2286 28.1043 10.6667 26.7478 10.6667 25.3333ZM1.33337 16C1.33337 14.5855 1.89528 13.2289 2.89547 12.2287C3.89567 11.2285 5.25222 10.6666 6.66671 10.6666C8.08119 10.6666 9.43775 11.2285 10.4379 12.2287C11.4381 13.2289 12 14.5855 12 16C12 17.4144 11.4381 18.771 10.4379 19.7712C9.43775 20.7714 8.08119 21.3333 6.66671 21.3333C5.25222 21.3333 3.89567 20.7714 2.89547 19.7712C1.89528 18.771 1.33337 17.4144 1.33337 16ZM20 16C20 14.5855 20.5619 13.2289 21.5621 12.2287C22.5623 11.2285 23.9189 10.6666 25.3334 10.6666C26.7479 10.6666 28.1044 11.2285 29.1046 12.2287C30.1048 13.2289 30.6667 14.5855 30.6667 16C30.6667 17.4144 30.1048 18.771 29.1046 19.7712C28.1044 20.7714 26.7479 21.3333 25.3334 21.3333C23.9189 21.3333 22.5623 20.7714 21.5621 19.7712C20.5619 18.771 20 17.4144 20 16ZM10.6667 6.66663C10.6667 5.25214 11.2286 3.89559 12.2288 2.89539C13.229 1.8952 14.5856 1.33329 16 1.33329C17.4145 1.33329 18.7711 1.8952 19.7713 2.89539C20.7715 3.89559 21.3334 5.25214 21.3334 6.66663C21.3334 8.08112 20.7715 9.43767 19.7713 10.4379C18.7711 11.4381 17.4145 12 16 12C14.5856 12 13.229 11.4381 12.2288 10.4379C11.2286 9.43767 10.6667 8.08112 10.6667 6.66663ZM4.00004 16C4.00004 16.7072 4.28099 17.3855 4.78109 17.8856C5.28119 18.3857 5.95946 18.6666 6.66671 18.6666C7.37395 18.6666 8.05223 18.3857 8.55233 17.8856C9.05242 17.3855 9.33337 16.7072 9.33337 16C9.33337 15.2927 9.05242 14.6144 8.55233 14.1143C8.05223 13.6142 7.37395 13.3333 6.66671 13.3333C5.95946 13.3333 5.28119 13.6142 4.78109 14.1143C4.28099 14.6144 4.00004 15.2927 4.00004 16ZM13.3334 25.3333C13.3334 26.0405 13.6143 26.7188 14.1144 27.2189C14.6145 27.719 15.2928 28 16 28C16.7073 28 17.3856 27.719 17.8857 27.2189C18.3858 26.7188 18.6667 26.0405 18.6667 25.3333C18.6667 24.626 18.3858 23.9478 17.8857 23.4477C17.3856 22.9476 16.7073 22.6666 16 22.6666C15.2928 22.6666 14.6145 22.9476 14.1144 23.4477C13.6143 23.9478 13.3334 24.626 13.3334 25.3333ZM22.6667 16C22.6667 16.7072 22.9477 17.3855 23.4478 17.8856C23.9479 18.3857 24.6261 18.6666 25.3334 18.6666C26.0406 18.6666 26.7189 18.3857 27.219 17.8856C27.7191 17.3855 28 16.7072 28 16C28 15.2927 27.7191 14.6144 27.219 14.1143C26.7189 13.6142 26.0406 13.3333 25.3334 13.3333C24.6261 13.3333 23.9479 13.6142 23.4478 14.1143C22.9477 14.6144 22.6667 15.2927 22.6667 16Z" fill="black"/>
</svg>
