<?xml version="1.0" encoding="UTF-8"?>
<svg id="a" data-name="Layer 4" xmlns="http://www.w3.org/2000/svg" viewBox="0 0 1920 1080">
  <path d="M758.1,0c2.4,15.2-5.2,30.9-18.9,38.6s-22.4,5.3-32.2-1.1-19.8-7.6-29.9-4.7-18.3,11.7-22.4,22.1-3,17.3-2.6,26.4-.1,18.7,2.5,28,6.9,20.6,14.6,28.5,13.2,10.7,22,10.4c16.2-.4,24.5-13.9,30.6-26.8s1.6-9.7,1.9-14.6c.5-8.1,5.4-15.2,13.6-16.6s13.4,1.5,18.1,6.7c11.2,12.4,3.9,12.7,13.6,22.6,3.2,3.3,6.4,6.8,9.7,10.4l7.3,7.7c4.3,4.6,9,12.3,8,18.6s-.9,15.6,3,22.2,4.7,2.9,6.6,4.9c8.1,8.4,8.7,24.3.8,27s-12.6-1.6-15.8-7.3c-2.3-4.2-5.8-7.3-6.4-12.8-3.2.7-5.6-.5-8.5-.6-10.6-.5-34.1-1-43.4,3.2s-8,14.8-4.4,20,8.5,6.4,12.9,9.3c9,5.9,18.7,16.5,12,27.6-3.5,5.8-9.5,8-15.7,10s-5.7,6.6-8,9.5-4.7,7.8-5.5,12.8c-1.5,9.1-1.9,19.4,0,28.4s2.3,6.2,4.6,9.2c8.4,11.2,6.4,8.3,13.8,12.3s7.8,12.6,5.9,19.5-3.6,21.3-1.4,26.4,4.1,14.9.9,22.1-15.8,10.2-22.4,13.1c-9.4,4.1-24.9,9.9-34.8,11.2s-21.3-4.8-24.3-11.7c-9.8-5-29.8,5-37.7,11-2,1.6-5,2.6-6.2,5.1-2.9,6.1-3.9,23-.7,28.8s9.7,4.6,12.8,8c7.7,8.4,10,16.6,24.3,25.5s15.9,6.8,25,7.7,12.8,2.1,19.7,1.6,21.2,1.2,25.7-5.7,2.2-13.6,12.3-15.7,9.3,1,13.2,4.6,7.1,1.4,9.8,1.6c5,.3,8,3.1,11.2,6.1s5.6,4,6.2,7.6c1.5,8.8-7.7,5.6-7.9,14.6l-.3,17.1c-.1,7.9-8.5,13.4-16.5,13.6-5.3,0-10.5-1.3-15.3-3.4s-6.8-12.4-9.3-12.6c-5.2-.6-9.9,1.9-14.7,3.4-13,4-14.9,7.9-25.5,15.6-2.4,4.6-3.5,9.7-6.9,14-10.1,12.9-24.6,22.3-41.1,24.3-7.1.9-13.4-.6-19-5-13,7.8-29.4,27.9-29.3,43,0,9.7,8.2,17.2,8.8,21s1.1,8.3,5.2,11.8,2.5,6.1,5.5,7.3c5.7,2.3,11.5,5.1,17.6,6.6s7.1,2,10.7,3.9c6.1,3.2,16.3,0,24.9,8.3,7.4,7.1,1.7,23.1,2,30.2s1.8,6.6,1.3,10.2,0,6,.6,7.7c5.6,6.7,14.3,11.4,11.7,22.5s-2.3,3.3-4.1,4.4c-9.2,6.1-10.7,8.6-15.7,17.5s-2.4,18.8,2.8,24.1c8.2,8.3,16.8,30,18.5,40.5l3.5,21.9c1.3,8.3,4.5,16.3,5.4,24.8s-1.8,6.3-5.1,8.2c-6.7,3.9-13.4,6.5-20.6,8.9s-16.4,6.7-25.7,7.1c-4,.2-9.7-1.2-12.2-4.6-4.6-6.4-6.6-14.2-8.5-21.7s-4.6-8.8-6.6-5.9-4.9,3.7-7.5,5.6c-4.8,3.5-9.3,6.5-15.4,7.7s-10.6,3.4-14.5,7.6c-6.3,7-3.6,20.1-1.9,28.6s2.2,8.3,6.1,10.6,10.3,3.8,12.9.3l5.4-7.1c3.8-4.9,11.4-9.2,18.1-7.3,7.7,2.2,13.6,8.3,20.9,11.3s6.9-1,10.1-1.4c7.7-.8,15.2-.3,22.8.9s7.6,3.6,10.5,7.1c6.2,7.5,3.2,7,7.2,19.2.6,1.8,0,4.2,2,5.3l9.1,5.3c2.2,1.3,4.6,2.4,5.6,5.1s3.6,7.3,4.7,11.1.9,8.4,1.3,12.6-2.2,6.7-5.9,6.5-8.2.6-11.9-.4c-8.6-2.5-17-4.5-25.9-5.8-1.5,2-1.5,4.6-1.9,6.7-.8,4.9-5.1,7-7.8,10.4s-6.8,10.2-9.6,15.6c-3.9,7.7-5.1,16.1-7.1,24.5s-1.3,11.2,1.9,15.5,5.5,3.8,7.6,6.2H0V0h758.1Z"/>
</svg>