<svg width="24" height="24" viewBox="0 0 24 24" fill="none" xmlns="http://www.w3.org/2000/svg">
<path fill-rule="evenodd" clip-rule="evenodd" d="M12 20.25C13.8872 20.2509 15.7176 19.6047 17.186 18.4193C18.6544 17.2339 19.672 15.5809 20.0691 13.7359C20.4662 11.891 20.2187 9.96575 19.3681 8.28118C18.5174 6.59662 17.1149 5.25462 15.3945 4.479C16.0856 6.00681 16.2948 7.70896 15.9941 9.35865C15.6934 11.0083 14.8972 12.5272 13.7115 13.713C12.5257 14.8987 11.0068 15.6949 9.35715 15.9956C7.70746 16.2963 6.00531 16.0871 4.4775 15.396C5.1312 16.8433 6.18871 18.0711 7.52307 18.9321C8.85744 19.7931 10.412 20.2507 12 20.25ZM1.5675 13.1925C1.79159 15.1552 2.56473 17.0148 3.79811 18.5579C5.03148 20.101 6.67509 21.2649 8.54015 21.916C10.4052 22.567 12.4161 22.6788 14.3418 22.2385C16.2676 21.7983 18.0301 20.8237 19.4269 19.4269C20.8237 18.0301 21.7983 16.2676 22.2385 14.3418C22.6788 12.4161 22.567 10.4052 21.916 8.54015C21.2649 6.67509 20.101 5.03148 18.5579 3.79811C17.0148 2.56473 15.1552 1.79159 13.1925 1.5675L13.1505 1.563C12.7684 1.52096 12.3844 1.49993 12 1.5C11.2095 1.5 11.115 2.763 11.7225 3.27C11.9028 3.42081 12.0741 3.58209 12.2355 3.753C12.7869 4.33698 13.2154 5.02571 13.4957 5.77837C13.776 6.53103 13.9023 7.3323 13.8671 8.13468C13.832 8.93706 13.6361 9.72423 13.2911 10.4495C12.9461 11.1748 12.459 11.8234 11.8587 12.3569C11.2584 12.8905 10.557 13.2981 9.79625 13.5555C9.03549 13.813 8.23077 13.9151 7.42982 13.8558C6.62886 13.7965 5.84796 13.577 5.13341 13.2103C4.41886 12.8436 3.7852 12.3371 3.27 11.721C2.763 11.115 1.5 11.211 1.5 12C1.49991 12.398 1.52245 12.7956 1.5675 13.191" fill="white"/>
</svg>
