<svg width="52" height="52" viewBox="0 0 52 52" fill="none" xmlns="http://www.w3.org/2000/svg">
<rect x="0.5" y="0.5" width="51" height="51" rx="9.5" fill="white"/>
<rect x="0.5" y="0.5" width="51" height="51" rx="9.5" stroke="black"/>
<path d="M14.8815 10C16.2194 10.0647 17.5788 10.1187 18.9599 10.1618C20.3409 10.2266 21.7435 10.2589 23.1677 10.2589H28.7351C30.1593 10.2589 31.5511 10.2266 32.9105 10.1618C34.2916 10.1187 35.6942 10.0647 37.1184 10C37.0753 10.2805 37.0321 10.5503 36.9889 10.8092C36.9674 11.0682 36.9566 11.3271 36.9566 11.586C36.9566 11.845 36.9674 12.1039 36.9889 12.3629C37.0321 12.6218 37.0753 12.8916 37.1184 13.1721C35.6942 13.1073 34.2916 13.0426 32.9105 12.9779C31.5511 12.9347 30.1593 12.9131 28.7351 12.9131H26.9548C26.7822 12.9131 26.6959 12.9779 26.6959 13.1073C26.6959 13.1937 26.793 13.3447 26.9872 13.5605C27.6345 14.3158 28.3682 15.1034 29.1882 15.9234C30.0082 16.765 30.8606 17.6065 31.7453 18.4481C32.63 19.2897 33.5255 20.1205 34.4319 20.9404C35.3597 21.7604 36.2553 22.5481 37.1184 23.3033C37.0753 23.5407 37.0321 23.7673 36.9889 23.9831C36.9674 24.1988 36.9566 24.4146 36.9566 24.6304C36.9566 24.8894 36.9674 25.1483 36.9889 25.4073C37.0321 25.6662 37.0753 25.9251 37.1184 26.1841C36.4711 25.4288 35.705 24.5765 34.8203 23.627C33.9355 22.6775 33.0292 21.7173 32.1013 20.7462C31.1735 19.7968 30.2564 18.8797 29.3501 17.9949C28.4653 17.1318 27.6885 16.4089 27.0195 15.8263C25.0559 17.5742 23.049 19.3328 20.9991 21.1023C18.9707 22.8933 16.9315 24.7059 14.8815 26.5401C14.9246 26.2165 14.9462 25.8928 14.9462 25.5691C14.9462 25.2454 14.9462 24.9217 14.9462 24.5981C14.9462 24.2959 14.9462 23.9938 14.9462 23.6917C14.9462 23.4112 14.9246 23.1199 14.8815 22.8178C15.7662 22.041 16.7804 21.1778 17.9241 20.2283C19.0678 19.3005 20.1683 18.3834 21.2256 17.4771C22.3046 16.5923 23.2648 15.7831 24.1064 15.0494C24.9696 14.3373 25.5738 13.8087 25.919 13.4634C26.0917 13.2908 26.178 13.1613 26.178 13.075C26.178 12.9671 26.1132 12.9131 25.9838 12.9131H23.1677C21.7435 12.9131 20.3409 12.9347 18.9599 12.9779C17.5788 13.0426 16.2194 13.1073 14.8815 13.1721C14.9246 12.6758 14.9462 12.1471 14.9462 11.586C14.9462 11.025 14.9246 10.4963 14.8815 10Z" fill="#FECB00"/>
<path d="M28.7674 26.9488C30.1916 26.9488 31.5942 26.9164 32.9753 26.8517C34.3563 26.8085 35.7374 26.7546 37.1184 26.6898C37.0753 27.6609 37.0321 28.6212 36.9889 29.5706C36.9674 30.5417 36.9566 31.5127 36.9566 32.4838C36.9566 33.4548 36.9674 34.4151 36.9889 35.3645C37.0321 36.314 37.0753 37.2742 37.1184 38.2453C36.7947 38.1806 36.4711 38.1482 36.1474 38.1482C35.8237 38.1482 35.5 38.1806 35.1763 38.2453C35.2195 37.5548 35.2626 36.9182 35.3058 36.3356C35.349 35.7745 35.3921 35.1703 35.4353 34.523C35.4784 33.8972 35.5108 33.2066 35.5324 32.4514C35.5755 31.6961 35.5971 30.7898 35.5971 29.7325C34.9066 29.7109 34.2484 29.6785 33.6226 29.6354C32.9969 29.6138 32.2848 29.603 31.4864 29.603C30.6448 29.603 29.8248 29.603 29.0264 29.603C28.228 29.6246 27.6237 29.6354 27.2137 29.6354C27.2137 30.5848 27.2245 31.4372 27.2461 32.1924C27.2677 32.9477 27.2893 33.6382 27.3109 34.264C27.354 34.8898 27.3864 35.4616 27.408 35.9795C27.4511 36.519 27.4943 37.0261 27.5374 37.5008C27.2137 37.4361 26.8793 37.4037 26.534 37.4037C26.2103 37.4037 25.8867 37.4361 25.563 37.5008C25.6277 36.9398 25.6817 36.2816 25.7248 35.5264C25.768 34.7927 25.7895 34.0482 25.7895 33.293C25.8111 32.5593 25.8219 31.858 25.8219 31.189C25.8435 30.5417 25.8543 30.0238 25.8543 29.6354C25.6601 29.6354 25.4443 29.6246 25.2069 29.603C24.9911 29.603 24.7106 29.603 24.3653 29.603H21.1609C19.9309 29.603 18.9167 29.603 18.1183 29.603C17.3199 29.6246 16.7157 29.6461 16.3057 29.6677C16.3057 30.3798 16.3057 31.1351 16.3057 31.9335C16.3057 32.7535 16.3165 33.5519 16.338 34.3287C16.3812 35.1272 16.4244 35.8716 16.4675 36.5621C16.5322 37.2742 16.6186 37.8892 16.7265 38.4071C16.5754 38.364 16.4028 38.3316 16.2086 38.31C16.0359 38.31 15.8741 38.31 15.723 38.31C15.3778 38.31 15.0973 38.3424 14.8815 38.4071C14.9246 37.4361 14.9462 36.465 14.9462 35.494C14.9462 34.5445 14.9462 33.5735 14.9462 32.5809C14.9462 31.5882 14.9462 30.6064 14.9462 29.6354C14.9462 28.6643 14.9246 27.6825 14.8815 26.6898C16.2625 26.7546 17.6328 26.8085 18.9922 26.8517C20.3733 26.9164 21.7759 26.9488 23.2001 26.9488H28.7674Z" fill="#0090FE"/>
<path d="M28.7351 39.0869C30.1593 39.0869 31.5511 39.0545 32.9105 38.9898C34.2916 38.9466 35.6942 38.8926 37.1184 38.8279C37.0753 39.1084 37.0321 39.3782 36.9889 39.6371C36.9674 39.8961 36.9566 40.155 36.9566 40.414C36.9566 40.6729 36.9674 40.9318 36.9889 41.1908C37.0321 41.4497 37.0753 41.7195 37.1184 42C35.6942 41.9353 34.2916 41.8705 32.9105 41.8058C31.5511 41.7626 30.1593 41.741 28.7351 41.741H23.1677C21.7435 41.741 20.3409 41.7626 18.9599 41.8058C17.5788 41.8705 16.2194 41.9353 14.8815 42C14.9246 41.5037 14.9462 40.975 14.9462 40.414C14.9462 39.8529 14.9246 39.3242 14.8815 38.8279C16.2194 38.8926 17.5788 38.9466 18.9599 38.9898C20.3409 39.0545 21.7435 39.0869 23.1677 39.0869H28.7351Z" fill="#FD2D55"/>
</svg>
