<svg width="100" height="80" viewBox="0 0 100 80" fill="none" xmlns="http://www.w3.org/2000/svg">
<path d="M32 36C30.3438 33.7969 27.2031 33.3437 25 35C22.7969 36.6563 22.3438 39.7969 24 42L29.9531 49.9375C30.7031 50.9375 30.5937 52.3281 29.7187 53.2031L27.7187 55.2031C26.6719 56.25 24.9688 56.1719 24.0313 55.0313L10 38.1875V15C10 12.2344 7.76563 10 5 10C2.23437 10 0 12.2344 0 15V49.125C0 50.8281 0.578125 52.4844 1.64062 53.8125L17.9062 74.7969C18.6875 75.8125 19.2188 76.9687 19.5312 78.1875C19.8125 79.2656 20.7969 80 21.9219 80H42.5C43.875 80 45 78.875 45 77.5V60C45 55.6719 43.5937 51.4688 41 48L32 36ZM95 10C92.2344 10 90 12.2344 90 15V38.1875L75.9688 55.0313C75.0313 56.1563 73.3125 56.2344 72.2813 55.2031L70.2812 53.2031C69.4062 52.3281 69.2969 50.9375 70.0469 49.9375L76 42C77.6562 39.7969 77.2031 36.6563 75 35C72.7969 33.3437 69.6563 33.7969 68 36L59 48C56.4063 51.4688 55 55.6719 55 60V77.5C55 78.875 56.125 80 57.5 80H78.0781C79.1875 80 80.1875 79.2656 80.4688 78.1875C80.7812 76.9687 81.3125 75.8125 82.0938 74.7969L98.3594 53.8125C99.4219 52.4844 100 50.8281 100 49.125V15C100 12.2344 97.7656 10 95 10Z" fill="#0E0E18"/>
</svg>
